<svg width="1058" height="785" viewBox="0 0 1058 785" fill="none" xmlns="http://www.w3.org/2000/svg">
<g id="undraw_Ride_a_bicycle_2yok (1) 1">
<g clip-path="url(#clip0)">
<g id="background">
<path id="Vector" d="M224.802 126.432C219.322 133.082 217.212 142.432 214.852 151.222C195.852 222.062 149.032 279.042 95.7121 319.742C73.1321 336.982 45.6421 360.102 50.5821 391.012C53.2421 407.612 64.9121 419.832 73.5821 433.352C91.7721 461.662 97.6721 500.142 89.0021 534.032C79.1421 572.592 51.5821 608.572 60.1121 647.562C65.3721 671.562 83.2321 688.642 100.402 703.322C127.189 726.209 154.829 747.649 183.322 767.642C202.422 781.042 222.742 794.082 245.002 795.782C264.602 797.282 283.802 789.832 302.412 782.482C318.672 776.052 335.342 769.362 348.472 756.482C357.042 748.072 363.872 737.222 373.392 730.342C395.752 714.182 424.472 724.422 450.112 731.342C510.612 747.582 575.362 741.652 632.932 714.602C721.242 673.102 788.552 585.952 874.932 539.192C912.072 519.082 952.472 506.602 986.862 480.702C1006.24 465.956 1022.89 447.938 1036.06 427.462C1062.06 387.352 1040.12 336.56 1036.06 286.5C1032 236.44 1045.25 187.852 1009.52 159.592C971.272 129.342 922.962 123.692 879.442 105.532C834.502 86.7722 794.522 54.5322 750.012 34.4022C713.996 18.1588 674.8 10.185 635.3 11.0658C595.8 11.9466 556.998 21.6596 521.742 39.4922C473.302 63.9922 424.202 121.152 370.252 125.492C331.812 128.492 254.822 90.0122 224.802 126.432Z" fill="url(#paint0_linear)"/>
</g>
<g id="Man on bike">
<path id="Vector_2" d="M389.08 561.194L346.373 519.05L333.027 532.574L375.734 574.718L389.08 561.194Z" fill="#747379"/>
<path id="Vector_3" d="M356.56 498.881C356.56 498.881 381.35 485.801 390.93 477.381C396.697 472.335 402.898 467.808 409.46 463.851L440.56 444.921L505.56 439.921L508.56 450.921C508.56 450.921 513.56 466.921 463.56 480.921C413.56 494.921 388.56 516.921 388.56 516.921C388.56 516.921 356.56 527.881 356.56 498.881Z" fill="#DB8B8B"/>
<path id="Vector_4" opacity="0.1" d="M391.21 514.751C389.44 516.101 388.56 516.881 388.56 516.881C388.56 516.881 356.56 527.881 356.56 498.881C356.56 498.881 358.11 498.061 360.56 496.691C363.035 500.721 366.503 504.05 370.631 506.359C374.759 508.669 379.41 509.881 384.14 509.881H387.53L391.21 514.751Z" fill="black"/>
<path id="Vector_5" opacity="0.05" d="M507.62 456.441C504.84 462.331 495.25 472.011 463.56 480.881C422.95 492.251 398.83 508.881 391.21 514.751C389.44 516.101 388.56 516.881 388.56 516.881C388.56 516.881 356.56 527.881 356.56 498.881C356.56 498.881 358.11 498.061 360.56 496.691C367.99 492.621 383.72 483.691 390.9 477.341C396.666 472.294 402.867 467.766 409.43 463.811L440.53 444.881L452.11 443.991L505.53 439.881L508.53 450.881C508.53 450.881 509.23 453.031 507.62 456.441Z" fill="black"/>
<path id="Vector_6" d="M357.06 492.381L330.56 509.881L408.16 574.881C408.16 574.881 419.56 567.881 413.56 559.881C413.56 559.881 393.56 542.881 392.56 518.881L386.56 510.881H383.17C377.438 510.882 371.847 509.102 367.169 505.788C362.492 502.474 358.96 497.789 357.06 492.381V492.381Z" fill="#747379"/>
<path id="Vector_7" opacity="0.1" d="M507.62 456.441C491.62 448.711 452.56 447.881 452.56 447.881L452.14 443.991L505.56 439.881L508.56 450.881C508.56 450.881 509.23 453.031 507.62 456.441Z" fill="black"/>
<path id="Vector_8" d="M452.56 445.881C452.56 445.881 499.56 446.881 511.56 456.881L505.56 335.881H440.56L452.56 445.881Z" fill="#ABB1D1"/>
<path id="Vector_9" opacity="0.05" d="M452.56 445.381C452.56 445.381 499.56 446.381 511.56 456.381L505.56 335.381H440.56L452.56 445.381Z" fill="black"/>
<path id="Vector_10" d="M490.32 371.841C490.32 371.841 607.97 367.841 610.37 383.051C612.77 398.261 492.72 391.851 492.72 391.851C492.72 391.851 483.12 382.241 490.32 371.841Z" fill="#535461"/>
<path id="Vector_11" opacity="0.05" d="M490.32 371.841C490.32 371.841 607.97 367.841 610.37 383.051C612.77 398.261 492.72 391.851 492.72 391.851C492.72 391.851 483.12 382.241 490.32 371.841Z" fill="black"/>
<path id="Vector_12" d="M395.08 432.671H374.27V613.551H395.08V432.671Z" fill="#747379"/>
<path id="Vector_13" opacity="0.1" d="M395.08 432.661V446.591C388.16 447.491 381.08 448.061 374.27 448.281V432.661H395.08Z" fill="black"/>
<path id="Vector_14" d="M393.52 417.671C390.6 417.445 387.696 417.054 384.82 416.501C373.54 414.341 345.1 409.811 337.45 417.501C327.85 427.101 331.05 443.911 356.66 446.311C382.27 448.711 426.29 442.311 435.1 432.701C435.1 432.661 419.17 419.641 393.52 417.671Z" fill="#353434"/>
<path id="Vector_15" d="M389.48 482.291L607.98 414.261L615.18 431.071L391.08 507.901L389.48 482.291Z" fill="#747379"/>
<path id="Vector_16" d="M454.31 589.541L611.98 434.271L620.78 447.071L470.31 603.941L454.31 589.541Z" fill="#747379"/>
<path id="Vector_17" opacity="0.1" d="M655.66 536.741C650.664 538.033 645.792 539.763 641.1 541.911L631.54 515.201C636.557 513.014 641.724 511.186 647 509.731L655.66 536.741Z" fill="black"/>
<path id="Vector_18" d="M682.41 615.151L671.21 621.551L593.07 403.221L589.57 393.451L607.98 383.041L612.59 397.421L682.41 615.151Z" fill="#747379"/>
<path id="Vector_19" opacity="0.1" d="M612.59 397.421L593.07 403.221L589.57 393.451L607.98 383.041L612.59 397.421Z" fill="black"/>
<path id="Vector_20" d="M493.52 414.261L603.17 376.641C603.17 376.641 622.38 379.041 615.17 395.051L504.73 427.861C504.73 427.861 487.93 429.461 493.52 414.261Z" fill="#353434"/>
<path id="Vector_21" opacity="0.1" d="M369.87 622.751C369.869 628.885 369.394 635.01 368.45 641.071C358.85 640.381 348.93 639.381 339.21 638.381C341.369 626.49 341.101 614.285 338.42 602.501C347.89 600.501 357.56 598.591 367 596.861C368.913 605.358 369.875 614.041 369.87 622.751V622.751Z" fill="black"/>
<path id="Vector_22" opacity="0.1" d="M395.08 592.271V613.541H374.27V595.541C381.47 594.291 388.47 593.181 395.08 592.271Z" fill="black"/>
<path id="Vector_23" d="M260.62 622.381C260.62 622.381 428.7 578.381 442.3 595.171C455.9 611.961 470.31 634.381 427.93 642.381C385.55 650.381 257.45 628.771 257.45 628.771L260.62 622.381Z" fill="#747379"/>
<path id="Vector_24" opacity="0.1" d="M343.29 548.261L321.93 567.811C318.147 562.955 313.871 558.504 309.17 554.531L329.11 533.701C334.244 538.14 338.988 543.011 343.29 548.261V548.261Z" fill="black"/>
<path id="Vector_25" d="M255.02 613.551L380.67 482.291L384.68 512.701L261.42 625.551L255.02 613.551Z" fill="#747379"/>
<path id="Vector_26" opacity="0.1" d="M253.42 635.161C260.495 635.161 266.23 629.426 266.23 622.351C266.23 615.276 260.495 609.541 253.42 609.541C246.345 609.541 240.61 615.276 240.61 622.351C240.61 629.426 246.345 635.161 253.42 635.161Z" fill="black"/>
<path id="Vector_27" d="M251.81 635.161C258.885 635.161 264.62 629.426 264.62 622.351C264.62 615.276 258.885 609.541 251.81 609.541C244.735 609.541 239 615.276 239 622.351C239 629.426 244.735 635.161 251.81 635.161Z" fill="#535461"/>
<path id="Vector_28" opacity="0.1" d="M677.21 633.961C684.285 633.961 690.02 628.226 690.02 621.151C690.02 614.076 684.285 608.341 677.21 608.341C670.135 608.341 664.4 614.076 664.4 621.151C664.4 628.226 670.135 633.961 677.21 633.961Z" fill="black"/>
<path id="Vector_29" d="M678.01 635.561C685.085 635.561 690.82 629.826 690.82 622.751C690.82 615.676 685.085 609.941 678.01 609.941C670.935 609.941 665.2 615.676 665.2 622.751C665.2 629.826 670.935 635.561 678.01 635.561Z" fill="#535461"/>
<path id="Vector_30" opacity="0.1" d="M450.3 635.161C464.444 635.161 475.91 623.695 475.91 609.551C475.91 595.407 464.444 583.941 450.3 583.941C436.156 583.941 424.69 595.407 424.69 609.551C424.69 623.695 436.156 635.161 450.3 635.161Z" fill="black"/>
<path id="Vector_31" d="M451.91 635.161C466.054 635.161 477.52 623.695 477.52 609.551C477.52 595.407 466.054 583.941 451.91 583.941C437.766 583.941 426.3 595.407 426.3 609.551C426.3 623.695 437.766 635.161 451.91 635.161Z" fill="#353434"/>
<path id="Vector_32" d="M445.072 607.627L445.064 607.633C442.057 609.882 441.442 614.143 443.691 617.151L464.017 644.331C466.266 647.339 470.528 647.954 473.535 645.705L473.543 645.699C476.551 643.449 477.166 639.188 474.916 636.181L454.59 609C452.341 605.993 448.08 605.378 445.072 607.627Z" fill="#6C63FF"/>
<path id="Vector_33" d="M567.56 253.881L565.18 283.991C564.906 287.805 564.956 291.635 565.33 295.441C565.64 298.811 565.33 304.711 562.03 313.711C557.793 325.208 555.603 337.358 555.56 349.611V383.881L532.56 379.881C532.56 379.881 533.56 331.881 529.56 323.881C525.56 315.881 532.56 244.881 532.56 244.881L567.56 253.881Z" fill="#DB8B8B"/>
<path id="Vector_34" opacity="0.05" d="M566.38 268.801L565.18 283.991C564.91 287.802 564.963 291.629 565.34 295.431C565.65 298.801 565.34 304.701 562.04 313.711C557.803 325.208 555.613 337.358 555.57 349.611V383.881L532.57 379.881C532.57 379.881 533.57 331.881 529.57 323.881C526.74 318.211 529.42 280.941 531.23 259.671C531.98 250.921 532.57 244.881 532.57 244.881L567.57 253.881L566.38 268.801Z" fill="black"/>
<path id="Vector_35" d="M453.58 483.881L444.93 533.081C443.839 539.65 442.166 546.109 439.93 552.381C434.86 566.241 438.1 585.671 440.56 596.271C441.65 600.951 442.56 603.911 442.56 603.911L416.56 617.911L408.56 611.911V607.911L407.56 518.911C401.56 504.911 403.56 483.911 407.56 475.911C408.697 473.282 409.497 470.52 409.94 467.691C411.94 456.971 412.56 441.911 412.56 441.911C412.56 441.911 428.56 414.911 447.56 432.911C454.56 439.541 457.22 448.211 457.78 456.511C458.76 470.721 453.58 483.881 453.58 483.881Z" fill="#DB8B8B"/>
<path id="Vector_36" opacity="0.1" d="M457.78 456.481C443.91 464.721 419.78 467.051 409.94 467.661C411.94 456.941 412.56 441.881 412.56 441.881C412.56 441.881 428.56 414.881 447.56 432.881C454.56 439.511 457.22 448.181 457.78 456.481Z" fill="black"/>
<path id="Vector_37" d="M491.56 431.881C480.926 437.544 470.877 444.243 461.56 451.881C445.56 464.881 405.56 465.881 405.56 465.881V450.881C406.56 432.881 389.56 412.881 366.56 356.881C351.87 321.121 355.94 300.881 360.8 290.881C363.56 285.231 366.56 282.881 366.56 282.881L491.56 306.881L496.03 320.281L505.56 348.881C505.56 348.881 470.56 350.881 464.56 353.881C458.56 356.881 462.56 383.881 462.56 383.881C456.56 411.881 491.56 431.881 491.56 431.881Z" fill="#ABB1D1"/>
<path id="Vector_38" opacity="0.1" d="M567.56 253.881L566.38 268.801C548.98 273.801 536.56 257.881 536.56 257.881C534.745 258.367 532.962 258.965 531.22 259.671C531.97 250.921 532.56 244.881 532.56 244.881L567.56 253.881Z" fill="black"/>
<path id="Vector_39" opacity="0.1" d="M496.03 320.281C495.56 324.951 495.56 327.881 495.56 327.881C495.56 327.881 472.56 346.881 433.56 317.881C394.56 288.881 359.56 296.881 359.56 296.881C359.56 296.881 359.97 294.561 360.8 290.881C363.56 285.231 366.56 282.881 366.56 282.881L491.56 306.881L496.03 320.281Z" fill="black"/>
<path id="Vector_40" d="M581.04 214.831C578.43 235.181 577.56 260.831 577.56 260.831C554.56 278.831 536.56 255.831 536.56 255.831C514.84 261.661 504.63 280.671 499.82 297.261C497.244 306.235 495.812 315.498 495.56 324.831C495.56 324.831 489.48 329.831 478.28 330.831C467.69 331.721 452.51 328.961 433.56 314.831C394.56 285.831 359.56 293.831 359.56 293.831C359.56 293.831 366.56 253.831 382.56 241.831C398.56 229.831 410.56 214.831 430.56 168.831C450.56 122.831 491.56 133.831 491.56 133.831C491.56 133.831 493.56 124.831 530.56 133.831C539.572 136.193 547.914 140.612 554.93 146.741C574.72 163.381 584.32 189.191 581.04 214.831Z" fill="white"/>
<path id="Vector_41" d="M543.93 156.381C543.88 157.711 543.77 159.191 543.59 160.841C541.59 178.841 539.59 176.841 517.59 180.841C503.91 183.331 496.8 171.901 493.38 162.901C492.142 159.641 491.208 156.273 490.59 152.841L538.59 144.841C538.59 144.841 544.34 143.231 543.93 156.381Z" fill="#DB8B8B"/>
<path id="Vector_42" opacity="0.05" d="M499.82 297.311C497.244 306.285 495.812 315.548 495.56 324.881C495.56 324.881 489.48 329.881 478.28 330.881C477.965 330.244 477.723 329.573 477.56 328.881C475.56 319.881 460.56 303.881 460.56 303.881C450.56 294.881 448.56 278.881 448.56 278.881L432.06 230.381L426.56 225.881C426.56 225.881 449.56 207.881 469.56 222.881C489.56 237.881 483.56 269.881 483.56 269.881L487.56 280.881C491.71 284.381 495.93 290.551 499.82 297.311Z" fill="black"/>
<path id="Vector_43" d="M429.56 224.881L451.56 277.881C451.56 277.881 453.56 293.881 463.56 302.881C463.56 302.881 478.56 318.881 480.56 327.881C482.56 336.881 510.56 360.881 510.56 360.881C510.56 360.881 536.56 384.881 538.56 393.881C538.56 393.881 562.56 400.881 559.56 414.881C559.56 414.881 577.56 396.881 559.56 379.881C541.56 362.881 517.56 327.881 517.56 327.881C517.56 327.881 503.56 290.881 490.56 279.881L486.56 268.881C486.56 268.881 492.56 236.881 472.56 221.881C452.56 206.881 429.56 224.881 429.56 224.881Z" fill="#DB8B8B"/>
<path id="Vector_44" opacity="0.1" d="M442.56 603.881L416.56 617.881L408.56 611.881V607.881C417.544 607.243 426.273 604.609 434.11 600.171C436.51 598.811 438.77 597.471 440.58 596.291C441.63 600.921 442.56 603.881 442.56 603.881Z" fill="black"/>
<path id="Vector_45" opacity="0.1" d="M472.56 182.881L486.56 237.881C486.56 237.881 443.56 244.881 434.56 237.881C425.56 230.881 408.56 228.881 408.56 228.881C408.56 228.881 426.56 176.881 436.56 170.881C446.56 164.881 472.56 182.881 472.56 182.881Z" fill="black"/>
<path id="Vector_46" d="M472.56 180.881L486.56 235.881C486.56 235.881 443.56 242.881 434.56 235.881C425.56 228.881 408.56 226.881 408.56 226.881C408.56 226.881 426.56 174.881 436.56 168.881C446.56 162.881 472.56 180.881 472.56 180.881Z" fill="white"/>
<path id="Vector_47" opacity="0.1" d="M543.93 155.381C541.129 159.247 537.567 162.499 533.463 164.938C529.358 167.376 524.798 168.949 520.063 169.56C515.328 170.171 510.519 169.806 505.93 168.489C501.341 167.172 497.07 164.93 493.38 161.901C492.142 158.641 491.208 155.273 490.59 151.841L538.59 143.841C538.59 143.841 544.34 142.231 543.93 155.381Z" fill="black"/>
<path id="Vector_48" d="M550.56 133.881C550.56 143.163 546.873 152.066 540.309 158.63C533.745 165.193 524.843 168.881 515.56 168.881C506.277 168.881 497.375 165.193 490.811 158.63C484.248 152.066 480.56 143.163 480.56 133.881C480.56 133.301 480.56 132.721 480.56 132.141C480.791 122.858 484.7 114.048 491.426 107.647C498.153 101.246 507.147 97.7801 516.43 98.0108C525.713 98.2416 534.523 102.15 540.924 108.877C547.325 115.604 550.791 124.598 550.56 133.881V133.881Z" fill="#DB8B8B"/>
<path id="Vector_49" opacity="0.1" d="M550.56 133.881C550.563 137.107 550.119 140.317 549.24 143.421C546.535 144.01 543.713 143.752 541.16 142.681C537.42 141.211 534.21 138.681 530.62 136.861C520.51 131.741 508.48 132.751 497.28 134.441C491.72 135.281 485.41 136.061 481.04 132.521C480.89 132.402 480.746 132.275 480.61 132.141C480.841 122.858 484.75 114.048 491.476 107.647C498.203 101.246 507.197 97.7801 516.48 98.0108C525.763 98.2416 534.573 102.15 540.974 108.877C547.375 115.604 550.841 124.598 550.61 133.881H550.56Z" fill="black"/>
<path id="Vector_50" opacity="0.05" d="M387.06 241.381C387.06 241.381 413.06 248.381 421.06 266.381C429.06 284.381 450.7 287.671 450.7 287.671" fill="black"/>
<path id="Vector_51" d="M485.06 637.381H425.06V656.381H485.06V637.381Z" fill="#353434"/>
<path id="Vector_52" d="M434.07 602.121C439.44 599.121 444.15 596.121 444.56 594.881C444.56 594.881 458.11 609.181 470.18 613.621C474.239 615.12 478.124 617.051 481.77 619.381C486.55 622.381 493.37 625.911 499.56 625.911C499.56 625.911 513.56 637.911 486.56 639.911C459.56 641.911 396.56 634.911 396.56 634.911L400.56 609.911C412.247 610.596 423.884 607.891 434.07 602.121Z" fill="#ABB1D1"/>
</g>
<g id="right-wheel">
<path id="Vector_53" d="M683.847 720.42L677.587 622.52L677.457 622.31L671.137 624.51L642.047 709.32L595.797 676.52L669.487 623.11L669.557 622.9L669.977 622.75L674.727 619.3L597.487 575.99L578.557 596.79L581.557 616.29L670.357 617.87V619.87L579.877 618.25L576.477 596.14L602.367 567.69L641.087 522.52L641.777 524.39L649.977 515.39L680.517 520.86V519.65L682.517 519.71V521.22L727.877 529.34L685.547 613.99L679.377 618.46V618.96V619.52L777.187 585.44L765.577 676.65L682.577 623.78L679.657 622.14L728.597 701.03L683.847 720.42ZM679.847 626.08L685.697 717.46L725.747 700.08L679.847 626.08ZM599.277 676.52L641.067 706.15L668.407 626.41L599.277 676.52ZM681.597 620.86L683.687 622.03L764.037 673.23L774.837 588.36L681.597 620.86ZM674.497 613.66L677.007 617.71L677.447 617.39L680.447 522.86L650.707 517.52L642.547 526.52L674.497 613.66ZM599.107 574.61L673.947 616.61L672.647 614.48L641.067 528.21L603.867 569.09L599.107 574.61ZM682.477 523.22L679.477 615.91L683.997 612.63L724.907 530.81L682.477 523.22Z" fill="#535461"/>
<path id="Vector_54" d="M678.757 499C668.144 498.988 657.578 500.415 647.347 503.24C642.071 504.695 636.904 506.523 631.887 508.71C605.157 520.297 583.674 541.387 571.594 567.898C559.514 594.41 557.697 624.459 566.492 652.233C575.287 680.008 594.071 703.533 619.209 718.259C644.348 732.984 674.054 737.863 702.582 731.952C731.109 726.04 756.431 709.759 773.648 686.257C790.865 662.755 798.754 633.702 795.789 604.72C792.823 575.738 779.215 548.885 757.595 529.356C735.975 509.828 707.881 499.012 678.747 499H678.757ZM678.357 705.09C658.076 705.082 638.408 698.137 622.62 685.407C606.831 672.678 595.872 654.931 591.562 635.113C587.252 615.295 589.851 594.599 598.928 576.463C608.004 558.326 623.011 543.84 641.457 535.41C646.149 533.262 651.021 531.532 656.017 530.24C668.229 527.07 680.977 526.537 693.411 528.678C705.845 530.818 717.681 535.581 728.13 542.652C738.58 549.722 747.404 558.937 754.015 569.683C760.627 580.429 764.873 592.46 766.473 604.975C768.073 617.49 766.989 630.202 763.293 642.265C759.598 654.329 753.375 665.467 745.04 674.939C736.704 684.41 726.447 691.998 714.951 697.196C703.455 702.395 690.984 705.086 678.367 705.09H678.357Z" fill="#353434"/>
</g>
<g id="left-wheel">
<path id="Vector_55" d="M257.725 720.05L251.455 622.11L251.325 621.9L245.005 624.1L215.925 708.95L169.675 676.16L243.345 622.75L243.415 622.54L243.835 622.39L248.585 618.94L171.345 575.63L152.425 596.43L155.425 615.93L244.245 617.55V619.55L153.765 617.93L150.345 595.79L176.245 567.33L214.995 522.13L215.685 524L223.885 515L254.345 520.46V519.25L256.345 519.31V520.82L301.705 528.94L259.415 613.55L253.245 618.02V618.52V619.08L351.045 585L339.435 676.21L256.435 623.34L253.515 621.7L302.455 700.58L257.725 720.05ZM253.725 625.71L259.575 717.09L299.625 699.71L253.725 625.71ZM173.145 676.14L214.935 705.77L242.275 626.03L173.145 676.14ZM255.465 620.48L257.555 621.65L337.905 672.85L348.705 587.98L255.465 620.48ZM248.365 613.28L250.875 617.33L251.315 617.01L254.315 522.48L224.575 517.16L216.415 526.16L248.365 613.28ZM172.945 574.22L247.785 616.22L246.485 614.09L214.905 527.82L177.715 568.69L172.945 574.22ZM256.345 522.83L253.345 615.55L257.865 612.27L298.775 530.45L256.345 522.83Z" fill="#535461"/>
<path id="left wheel" d="M367.415 592.738C363.405 574.919 355.285 558.283 343.705 544.158C339.406 538.909 334.666 534.038 329.535 529.598C309.809 512.567 284.986 502.568 258.962 501.17C232.938 499.771 207.187 507.053 185.749 521.873C164.311 536.693 148.401 558.211 140.515 583.05C132.629 607.89 133.214 634.645 142.178 659.116C151.142 683.587 167.978 704.39 190.042 718.258C212.107 732.127 238.152 738.277 264.09 735.743C290.028 733.208 314.39 722.134 333.353 704.257C352.317 686.379 364.807 662.712 368.865 636.968C369.809 630.907 370.284 624.783 370.285 618.648C370.292 609.932 369.329 601.242 367.415 592.738ZM252.225 707.088C233.993 707.069 216.209 701.435 201.292 690.953C186.374 680.47 175.047 665.648 168.851 648.501C162.655 631.354 161.89 612.715 166.66 595.118C171.43 577.521 181.505 561.82 195.513 550.15C209.521 538.48 226.783 531.408 244.953 529.895C263.122 528.381 281.316 532.501 297.062 541.693C312.807 550.884 325.34 564.703 332.956 581.268C340.571 597.834 342.9 616.343 339.625 634.278C335.875 654.722 325.076 673.203 309.107 686.506C293.137 699.809 273.01 707.093 252.225 707.088V707.088Z" fill="#353434"/>
</g>
<g id="Hat">
<path id="Vector_56" d="M454.624 114.927C456.754 121.607 466.984 121.817 472.234 126.737C474.964 129.297 476.234 133.077 479.234 135.357C483.404 138.537 489.424 137.837 494.734 137.077C505.424 135.557 516.904 134.647 526.544 139.257C529.964 140.887 533.034 143.167 536.604 144.497C540.174 145.827 544.604 145.987 547.504 143.627C549.824 141.737 550.674 138.627 552.774 136.547C554.404 134.907 556.674 133.987 558.534 132.547C562.614 129.467 564.374 124.447 565.534 119.647C567.934 109.767 568.624 99.1167 564.534 89.7467C560.444 80.3767 550.604 72.7467 539.864 73.2367C536.574 73.3867 533.364 74.2367 530.084 74.5967C521.534 75.4667 513.084 72.5967 504.504 72.1067C502.015 71.8039 499.49 72.1483 497.174 73.1067C495.427 74.0775 493.92 75.4273 492.764 77.0567C488.836 82.2021 486.146 88.1836 484.904 94.5367C483.904 99.3267 483.854 103.667 477.984 104.407C471.314 105.287 450.114 100.797 454.624 114.927Z" fill="#262323"/>
</g>
</g>
</g>
<defs>
<linearGradient id="paint0_linear" x1="916.072" y1="120.502" x2="-149.928" y2="833.502" gradientUnits="userSpaceOnUse">
<stop stop-color="#24E0D5"/>
<stop offset="1" stop-color="#3328E6" stop-opacity="0"/>
</linearGradient>
<clipPath id="clip0">
<rect width="1057.7" height="784.98" fill="white"/>
</clipPath>
</defs>
</svg>
